<svg xmlns="http://www.w3.org/2000/svg" width="11.14" height="12.47" viewBox="0 0 11.14 12.47">
  <g id="Group_18168" data-name="Group 18168" transform="translate(1046.245 -1679.519)">
    <path id="Path_21017" data-name="Path 21017" d="M183.255,13.221h-6.65V1.251h6.65Zm-6.65-8.246h-3.99v8.246h3.99" transform="translate(-1218.609 1678.518)" fill="none" stroke="#fff" stroke-linecap="round" stroke-linejoin="round" stroke-width="0.5"/>
    <path id="Path_21018" data-name="Path 21018" d="M183.954,8.579a.266.266,0,0,0-.266-.266h-.8a.266.266,0,0,0-.266.266v.8a.267.267,0,0,0,.266.266h.8a.266.266,0,0,0,.266-.266Zm0,2.261a.266.266,0,0,0-.266-.266h-.8a.267.267,0,0,0-.266.266v.8a.266.266,0,0,0,.266.266h.8a.266.266,0,0,0,.266-.266Zm0,2.261a.266.266,0,0,0-.266-.266h-.8a.266.266,0,0,0-.266.266v.8a.266.266,0,0,0,.266.266h.8a.266.266,0,0,0,.266-.266h0Zm0,2.261a.266.266,0,0,0-.266-.266h-.8a.266.266,0,0,0-.266.266v.8a.266.266,0,0,0,.266.266h.8a.266.266,0,0,0,.266-.266ZM178.5,13.9a.265.265,0,0,0,.266.266h.8a.266.266,0,0,0,.266-.266h0v-.8a.266.266,0,0,0-.266-.266h-.8a.266.266,0,0,0-.266.266Zm0,2.261a.266.266,0,0,0,.266.266h.8a.266.266,0,0,0,.266-.266v-.8a.266.266,0,0,0-.266-.266h-.8a.266.266,0,0,0-.266.266Zm6.517-6.783a.267.267,0,0,0,.266.266h.8a.266.266,0,0,0,.266-.266v-.8a.266.266,0,0,0-.266-.266h-.8a.266.266,0,0,0-.266.266Zm0,2.261a.266.266,0,0,0,.266.266h.8a.266.266,0,0,0,.266-.266v-.8a.266.266,0,0,0-.266-.266h-.8a.267.267,0,0,0-.266.266Zm0,2.261a.266.266,0,0,0,.266.266h.8a.266.266,0,0,0,.266-.266h0v-.8a.266.266,0,0,0-.266-.266h-.8a.266.266,0,0,0-.266.266Zm0,2.261a.267.267,0,0,0,.266.266h.8a.266.266,0,0,0,.266-.266v-.8a.266.266,0,0,0-.266-.266h-.8a.267.267,0,0,0-.266.266Z" transform="translate(-1223.166 1673.052)" fill="none" stroke="#fff" stroke-linecap="round" stroke-linejoin="round" stroke-width="0.5"/>
  </g>
</svg>
