<svg id="apple-black-logo-01" xmlns="http://www.w3.org/2000/svg" width="16.143" height="19.762" viewBox="0 0 16.143 19.762">
  <path id="Path_19167" data-name="Path 19167" d="M11.555,120.207h-.424a3.23,3.23,0,0,1-1.162-.488,6.482,6.482,0,0,1-1.724-1.827,12.667,12.667,0,0,1-2.157-6.507A6,6,0,0,1,7.939,106.5a4.068,4.068,0,0,1,3.872-1.108,8.847,8.847,0,0,1,1.428.517,2.226,2.226,0,0,0,1.7.079c.281-.108.571-.2.842-.33a4.67,4.67,0,0,1,2.936-.36,4.9,4.9,0,0,1,2.891,1.862c-1.355,1.029-2.305,2.271-2.084,4.059a4.494,4.494,0,0,0,2.689,3.744c-.232.522-.453,1.044-.695,1.552a7.458,7.458,0,0,1-2.276,3.015,3.287,3.287,0,0,1-1.281.68h-.35c-.6-.2-1.2-.365-1.783-.591a3.156,3.156,0,0,0-2.236-.084C12.914,119.759,12.234,119.981,11.555,120.207Z" transform="translate(-6.076 -100.445)"/>
  <path id="Path_19168" data-name="Path 19168" d="M170.605,13.1a3.763,3.763,0,0,1,1.926-3.8,6.14,6.14,0,0,1,1.729-.68l.089-.015a3.384,3.384,0,0,1-1.808,3.872A5.288,5.288,0,0,1,170.605,13.1Z" transform="translate(-162.492 -8.6)"/>
</svg>
