<svg xmlns="http://www.w3.org/2000/svg" width="12.736" height="15.263" viewBox="0 0 12.736 15.263">
  <g id="Group_18172" data-name="Group 18172" transform="translate(1046.781 -1721.514)">
    <path id="Path_21026" data-name="Path 21026" d="M181.681,198.168h-10.64V197.1h10.64Zm0,5.187h-10.64v.8h10.64Zm-.931-5.187v5.187m-8.778-5.187v5.187m0,6.251v-5.453m8.778,5.453v-5.453m-10.507,5.453h12.236" transform="translate(-1216.774 1526.921)" fill="none" stroke="#fff" stroke-linecap="round" stroke-linejoin="round" stroke-width="0.5"/>
    <path id="Path_21027" data-name="Path 21027" d="M181.314,188.028v1.331m1.862-1.331v1.331m.8-2.261h-3.459v.93h3.459Zm-.8,7.581v-3.192a.266.266,0,0,0-.266-.266h-1.862a.266.266,0,0,0-.266.266v3.192m2.926,0H180.25m.532-1.729h2.394m4.256,1.729v-3.192a.266.266,0,0,0-.266-.266H185.3a.266.266,0,0,0-.266.266v3.192m2.926,0h-3.457m.532-1.729h2.393m-4.256,7.714v-3.192a.266.266,0,0,0-.266-.266h-1.862a.266.266,0,0,0-.266.266v3.192m2.926,0H180.25m.532-1.73h2.394m4.256,1.73v-3.192a.266.266,0,0,0-.266-.266H185.3a.266.266,0,0,0-.266.266v3.192m2.926,0h-3.457m.531-1.73h2.394" transform="translate(-1224.519 1534.666)" fill="none" stroke="#fff" stroke-linecap="round" stroke-linejoin="round" stroke-width="0.5"/>
  </g>
</svg>
