<svg xmlns="http://www.w3.org/2000/svg" xmlns:xlink="http://www.w3.org/1999/xlink" width="114" height="114" viewBox="0 0 114 114">
  <defs>
    <filter id="Path_Success_2" x="0" y="0" width="114" height="114" filterUnits="userSpaceOnUse">
      <feOffset input="SourceAlpha"/>
      <feGaussianBlur stdDeviation="3.5" result="blur"/>
      <feFlood flood-opacity="0.161"/>
      <feComposite operator="in" in2="blur"/>
      <feComposite in="SourceGraphic"/>
    </filter>
  </defs>
  <g id="Group_19875" data-name="Group 19875" transform="translate(-583.5 -5110.5)">
    <g transform="matrix(1, 0, 0, 1, 583.5, 5110.5)" filter="url(#Path_Success_2)">
      <g id="Path_Success_2-2" data-name="Path Success 2" transform="translate(10.5 10.5)" fill="#edaa43">
        <path d="M 46.5 89 C 40.76078414916992 89 35.19535446166992 87.87686157226562 29.95830726623535 85.66178131103516 C 24.89792251586914 83.52141571044922 20.35238456726074 80.45644378662109 16.44796943664551 76.55203247070312 C 12.54355430603027 72.64761352539062 9.478584289550781 68.10207366943359 7.338215351104736 63.04169082641602 C 5.123138427734375 57.80464553833008 4 52.23921585083008 4 46.5 C 4 40.76078414916992 5.123138427734375 35.19535446166992 7.338215351104736 29.95830726623535 C 9.478584289550781 24.89792251586914 12.54355430603027 20.35238456726074 16.44796943664551 16.44796943664551 C 20.35238456726074 12.54355430603027 24.89792251586914 9.478584289550781 29.95830726623535 7.338215351104736 C 35.19535446166992 5.123138427734375 40.76078414916992 4 46.5 4 C 52.23921585083008 4 57.80464553833008 5.123138427734375 63.04169082641602 7.338215351104736 C 68.10207366943359 9.478584289550781 72.64761352539062 12.54355430603027 76.55203247070312 16.44796943664551 C 80.45644378662109 20.35238456726074 83.52141571044922 24.89792251586914 85.66178131103516 29.95830726623535 C 87.87686157226562 35.19535446166992 89 40.76078414916992 89 46.5 C 89 52.23921585083008 87.87686157226562 57.80464553833008 85.66178131103516 63.04169082641602 C 83.52141571044922 68.10207366943359 80.45644378662109 72.64761352539062 76.55203247070312 76.55203247070312 C 72.64761352539062 80.45644378662109 68.10207366943359 83.52141571044922 63.04169082641602 85.66178131103516 C 57.80464553833008 87.87686157226562 52.23921585083008 89 46.5 89 Z" stroke="none"/>
        <path d="M 46.5 8 C 25.27101898193359 8 8 25.27101898193359 8 46.5 C 8 67.72898101806641 25.27101898193359 85 46.5 85 C 67.72898101806641 85 85 67.72898101806641 85 46.5 C 85 25.27101898193359 67.72898101806641 8 46.5 8 M 46.5 0 C 72.18124389648438 0 93 20.81876373291016 93 46.5 C 93 72.18124389648438 72.18124389648438 93 46.5 93 C 20.81876373291016 93 0 72.18124389648438 0 46.5 C 0 20.81876373291016 20.81876373291016 0 46.5 0 Z" stroke="none" fill="#fff"/>
      </g>
    </g>
    <path id="Path_19080" data-name="Path 19080" d="M147.123,25.9,135.7,35.816,147.368,47.3a5.649,5.649,0,0,0,.9-3.054V29.3A5.831,5.831,0,0,0,147.123,25.9Z" transform="translate(510.644 5130.717)" fill="#fff"/>
    <path id="Path_19081" data-name="Path 19081" d="M60.9,15.194a5.787,5.787,0,0,0-2.871-.794H32.715a5.616,5.616,0,0,0-3.115.937L45.1,28.918Z" transform="translate(595.14 5139.875)" fill="#fff"/>
    <path id="Path_19082" data-name="Path 19082" d="M45.569,85.156a1.2,1.2,0,0,1-.753.285,1.157,1.157,0,0,1-.753-.285l-3.3-2.891L29.3,93.729a5.653,5.653,0,0,0,3.156.957h25.31a5.7,5.7,0,0,0,3.278-1.038L49.214,82Z" transform="translate(595.378 5086.04)" fill="#fff"/>
    <path id="Path_19083" data-name="Path 19083" d="M17.577,26.9a5.753,5.753,0,0,0-.977,3.2V45.043a5.767,5.767,0,0,0,.957,3.156L28.919,36.837Z" transform="translate(605.492 5129.92)" fill="#fff"/>
  </g>
</svg>
