<svg xmlns="http://www.w3.org/2000/svg" xmlns:xlink="http://www.w3.org/1999/xlink" width="141.45" height="137.041" viewBox="0 0 141.45 137.041">
  <defs>
    <clipPath id="clip-path">
      <rect id="Rectangle_3630" data-name="Rectangle 3630" width="141.451" height="137.041" fill="none" stroke="#fff" stroke-width="5"/>
    </clipPath>
  </defs>
  <g id="Group_18923" data-name="Group 18923" transform="translate(6 7)">
    <g id="Group_18922" data-name="Group 18922" transform="translate(-6 -7)" clip-path="url(#clip-path)">
      <path id="Path_21601" data-name="Path 21601" d="M8.008,56.51.662,46.22,69.733.662,138.807,46.22l-7.348,10.29L69.733,13.888Zm7.348-5.238V119.7m105.815-70.07V119.7m13.226,0H2.13v14.694H134.4Z" transform="translate(0.991 0.99)" fill="none" stroke="#fff" stroke-linecap="round" stroke-linejoin="round" stroke-width="5"/>
      <path id="Path_21602" data-name="Path 21602" d="M48.3,83.586V27.726A2.942,2.942,0,0,0,45.349,24.8H15.961a2.937,2.937,0,0,0-2.939,2.936V83.586M89.444,63.01V27.726A2.944,2.944,0,0,0,86.5,24.79H65.931a2.942,2.942,0,0,0-2.941,2.936V63.01m-7.348,0H96.8m-33.808-19.1H89.444" transform="translate(19.492 37.107)" fill="none" stroke="#fff" stroke-linecap="round" stroke-linejoin="round" stroke-width="5"/>
      <path id="Path_21603" data-name="Path 21603" d="M24.832,38.181a2.209,2.209,0,0,1-2.2,2.207H18.22a2.206,2.206,0,1,1-.162-4.409c.055,0,.11,0,.162,0h4.409a2.2,2.2,0,0,1,2.2,2.2v0" transform="translate(23.847 53.853)" fill="none" stroke="#fff" stroke-width="5"/>
    </g>
  </g>
</svg>
