<svg id="google-icon" xmlns="http://www.w3.org/2000/svg" width="18.426" height="18.802" viewBox="0 0 18.426 18.802">
  <path id="Path_google_4" data-name="Path google 4" d="M9.025,1.922A8.056,8.056,0,0,0,8.826,0H0V3.489H5.181a4.594,4.594,0,0,1-1.922,3.05l-.018.117L6.032,8.818l.193.019a9.192,9.192,0,0,0,2.8-6.915" transform="translate(9.401 7.688)" fill="#4285f4"/>
  <path id="Path_google_3" data-name="Path google 3" d="M8.4,7.542a8.96,8.96,0,0,0,6.225-2.277l-2.967-2.3a5.564,5.564,0,0,1-3.259.94A5.659,5.659,0,0,1,3.05,0L2.94.009.038,2.255,0,2.361A9.394,9.394,0,0,0,8.4,7.542" transform="translate(1.003 11.26)" fill="#34a853"/>
  <path id="Path_google_2" data-name="Path google 2" d="M4.053,6.125a5.788,5.788,0,0,1-.313-1.859,6.082,6.082,0,0,1,.3-1.859l-.005-.125L1.1,0,1,.046a9.381,9.381,0,0,0,0,8.44l3.05-2.361" transform="translate(0 5.135)" fill="#fbbc05"/>
  <path id="Path_google_1" data-name="Path google 1" d="M8.4,3.635a5.21,5.21,0,0,1,3.635,1.4l2.653-2.59A9.032,9.032,0,0,0,8.4,0,9.394,9.394,0,0,0,0,5.181L3.04,7.542A5.683,5.683,0,0,1,8.4,3.635" transform="translate(1.003)" fill="#eb4335"/>
</svg>
