<svg xmlns="http://www.w3.org/2000/svg" width="27.381" height="20.053" viewBox="0 0 27.381 20.053">
  <g id="Group_16651" data-name="Group 16651" transform="translate(0.132 0.153)">
    <path id="Path_19212" data-name="Path 19212" d="M27.149,28.918a5.869,5.869,0,0,1-.4.65,24.118,24.118,0,0,1-6.789,5.98A12.986,12.986,0,0,1,14.3,37.371a11.3,11.3,0,0,1-4.82-.756,19.559,19.559,0,0,1-6.192-3.971,25.99,25.99,0,0,1-2.95-3.2.945.945,0,0,1,0-1.359A24.221,24.221,0,0,1,7.2,21.99a12.426,12.426,0,0,1,6.868-1.85,12.081,12.081,0,0,1,4.84,1.286,23.278,23.278,0,0,1,7.969,6.7,2.826,2.826,0,0,1,.265.484C27.149,28.712,27.149,28.812,27.149,28.918Zm-2.022-.139c-.1-.119-.166-.206-.245-.292-.829-.849-1.624-1.744-2.506-2.546a16.294,16.294,0,0,0-5.7-3.5,9.16,9.16,0,0,0-4.011-.477,11.935,11.935,0,0,0-4.84,1.73,22.7,22.7,0,0,0-5.191,4.422c-.186.206-.365.424-.564.663.524.57,1.021,1.134,1.545,1.664a19.124,19.124,0,0,0,5.96,4.269,10.22,10.22,0,0,0,3.6.882,10.417,10.417,0,0,0,5.357-1.306,20.044,20.044,0,0,0,5.019-3.8C24.079,29.946,24.59,29.362,25.127,28.779Z" transform="translate(-0.05 -19.199)" fill="#00416b" stroke="#f8f8f9" stroke-width="0.3"/>
    <path id="Path_19213" data-name="Path 19213" d="M134.312,74.874a5.357,5.357,0,1,1-5.324-5.377A5.362,5.362,0,0,1,134.312,74.874Zm-1.79-.033a3.57,3.57,0,1,0-3.547,3.587A3.576,3.576,0,0,0,132.522,74.84Z" transform="translate(-115.407 -65.293)" fill="#00416b" stroke="#f8f8f9" stroke-width="0.3"/>
    <g id="Group_15455" data-name="Group 15455" transform="translate(1.758 0)">
      <path id="Path_19214" data-name="Path 19214" d="M27.5,25.844a.931.931,0,0,1-.6-1.638c.053-.046,5.251-4.448,10.5-8.831C48.155,6.4,48.613,6.246,48.924,6.14a.929.929,0,0,1,.656,1.737c-1.193.689-13.79,11.231-21.487,17.747A.922.922,0,0,1,27.5,25.844ZM49.508,7.9Z" transform="translate(-26.567 -6.094)" fill="#00416b" stroke="#f8f8f9" stroke-width="0.3"/>
    </g>
  </g>
</svg>
