<svg xmlns="http://www.w3.org/2000/svg" width="15.396" height="12.204" viewBox="0 0 15.396 12.204">
  <g id="Group_18167" data-name="Group 18167" transform="translate(1085.1 -1679.785)">
    <path id="Path_21015" data-name="Path 21015" d="M2.125,2.428v11.7m11.97,0V2.428M.662,14.132h14.9m-.8-11.7H1.46m.665,1.463H14.1m0,4.655H2.125m7.369,4.788h4.6m-11.97,0h4.6" transform="translate(-1085.512 1677.607)" fill="none" stroke="#fff" stroke-linecap="round" stroke-linejoin="round" stroke-width="0.5"/>
    <path id="Path_21016" data-name="Path 21016" d="M14.506,15.055a.266.266,0,0,0-.266-.266H12.112a.266.266,0,0,0-.266.266v1.862a.267.267,0,0,0,.266.266H14.24a.266.266,0,0,0,.266-.266Zm4.522,1.862a.267.267,0,0,0,.266.266h2.128a.267.267,0,0,0,.266-.266V15.055a.266.266,0,0,0-.266-.266H19.294a.266.266,0,0,0-.266.266ZM18.1,15.055a.266.266,0,0,0-.266-.266H15.7a.266.266,0,0,0-.266.266v1.862a.267.267,0,0,0,.266.266h2.128a.267.267,0,0,0,.266-.266Zm-3.591,4.389a.266.266,0,0,0-.266-.266H12.112a.266.266,0,0,0-.266.266V21.3a.267.267,0,0,0,.266.266H14.24a.266.266,0,0,0,.266-.266ZM19.028,21.3a.266.266,0,0,0,.266.266h2.128a.267.267,0,0,0,.266-.266V19.444a.266.266,0,0,0-.266-.266H19.294a.266.266,0,0,0-.266.266ZM18.1,23.7V19.444a.266.266,0,0,0-.266-.266H15.7a.266.266,0,0,0-.266.266V23.7" transform="translate(-1094.169 1668.039)" fill="none" stroke="#fff" stroke-linecap="round" stroke-linejoin="round" stroke-width="0.5"/>
  </g>
</svg>
