<svg xmlns="http://www.w3.org/2000/svg" width="28.287" height="28.286" viewBox="0 0 28.287 28.286">
  <g id="Group_16297" data-name="Group 16297" transform="translate(-91.653 -453.3)">
    <path id="Path_19804" data-name="Path 19804" d="M14.143,105.447h0A13.927,13.927,0,1,1,28.071,91.52,13.927,13.927,0,0,1,14.143,105.447Z" transform="translate(91.653 375.923)" fill="none" stroke="#fff" stroke-width="0.432"/>
    <g id="Group_16294" data-name="Group 16294">
      <path id="Path_19805" data-name="Path 19805" d="M18.925,90.75c1.808,0,2.022.007,2.736.04a3.737,3.737,0,0,1,1.257.233A2.243,2.243,0,0,1,24.2,92.307a3.769,3.769,0,0,1,.233,1.258c.032.714.04.928.04,2.735s-.007,2.022-.04,2.736a3.769,3.769,0,0,1-.233,1.258,2.244,2.244,0,0,1-1.285,1.285,3.737,3.737,0,0,1-1.257.233c-.714.032-.928.04-2.736.04s-2.022-.007-2.736-.04a3.737,3.737,0,0,1-1.257-.233,2.244,2.244,0,0,1-1.285-1.285,3.769,3.769,0,0,1-.233-1.258c-.032-.714-.039-.928-.039-2.736s.007-2.021.039-2.735a3.769,3.769,0,0,1,.233-1.258,2.243,2.243,0,0,1,1.285-1.285,3.737,3.737,0,0,1,1.257-.233c.714-.033.928-.04,2.736-.04m0-1.22c-1.839,0-2.069.008-2.792.041a4.972,4.972,0,0,0-1.643.315,3.461,3.461,0,0,0-1.98,1.98,4.948,4.948,0,0,0-.315,1.644c-.033.722-.041.953-.041,2.791s.008,2.07.041,2.792a4.949,4.949,0,0,0,.315,1.644,3.461,3.461,0,0,0,1.98,1.98,4.972,4.972,0,0,0,1.643.315c.722.033.953.041,2.792.041s2.069-.008,2.792-.041a4.972,4.972,0,0,0,1.643-.315,3.464,3.464,0,0,0,1.981-1.98,4.979,4.979,0,0,0,.315-1.644c.032-.722.04-.953.04-2.792s-.008-2.069-.04-2.791a4.979,4.979,0,0,0-.315-1.644,3.464,3.464,0,0,0-1.981-1.98,4.972,4.972,0,0,0-1.643-.315c-.722-.033-.953-.041-2.792-.041" transform="translate(86.872 371.143)" fill="#fff"/>
      <path id="Path_19806" data-name="Path 19806" d="M21.125,95.024A3.477,3.477,0,1,0,24.6,98.5a3.477,3.477,0,0,0-3.477-3.477m0,5.734A2.257,2.257,0,1,1,23.382,98.5a2.257,2.257,0,0,1-2.257,2.257" transform="translate(84.672 368.942)" fill="#fff"/>
      <path id="Path_19807" data-name="Path 19807" d="M29.746,94.252a.813.813,0,1,1-.812-.812.813.813,0,0,1,.812.812" transform="translate(80.477 369.577)" fill="#fff"/>
    </g>
  </g>
</svg>
