<svg xmlns="http://www.w3.org/2000/svg" width="13.002" height="12.603" viewBox="0 0 13.002 12.603">
  <g id="Group_18173" data-name="Group 18173" transform="translate(1010.069 -1723.601)">
    <path id="Path_21028" data-name="Path 21028" d="M333.373,201.385l-.665-.931,6.251-4.123,6.251,4.123-.665.931-5.586-3.857Zm.665-.474V207.1m9.576-6.342V207.1m1.2,0h-11.97v1.33h11.97Z" transform="translate(-1342.527 1527.52)" fill="none" stroke="#fff" stroke-linecap="round" stroke-linejoin="round" stroke-width="0.5"/>
    <path id="Path_21029" data-name="Path 21029" d="M348.261,225.78v-5.055a.266.266,0,0,0-.267-.265h-2.66a.266.266,0,0,0-.266.266v5.054m6.916-1.862v-3.193a.266.266,0,0,0-.266-.266h-1.862a.266.266,0,0,0-.266.266v3.193m-.665,0h3.725m-3.06-1.729h2.394" transform="translate(-1352.094 1508.844)" fill="none" stroke="#fff" stroke-linecap="round" stroke-linejoin="round" stroke-width="0.5"/>
    <path id="Path_21030" data-name="Path 21030" d="M348.783,231.846a.2.2,0,0,1-.2.2h-.4a.2.2,0,1,1-.015-.4h.414a.2.2,0,0,1,.2.2h0" transform="translate(-1354.346 1500.184)" fill="#634e42" stroke="#fff" stroke-width="0.5"/>
  </g>
</svg>
