<svg xmlns="http://www.w3.org/2000/svg" width="19.855" height="15.374" viewBox="0 0 19.855 15.374">
  <g id="language-choice-01" transform="translate(0.115 0.044)">
    <path id="Path_19122" data-name="Path 19122" d="M8.1,3.832V2.584A2.492,2.492,0,0,1,10.741-.042c2.154,0,4.314-.006,6.468,0A2.476,2.476,0,0,1,19.7,2.033a3,3,0,0,1,.037.526c0,1.187.006,2.374,0,3.555a2.467,2.467,0,0,1-1.995,2.552c-.153.037-.147.122-.147.233,0,.7,0,1.407-.012,2.111a.606.606,0,0,1-.1.343c-.116.165-.288.153-.532,0-1.089-.692-2.2-1.352-3.268-2.087a2.654,2.654,0,0,0-1.94-.545c-.067.012-.135.006-.226.012V10a2.49,2.49,0,0,1-1.248,2.252,2.144,2.144,0,0,1-1.108.324c-.7.006-1.4,0-2.087.012a.936.936,0,0,0-.465.135c-1.3.814-2.6,1.64-3.9,2.46a1.006,1.006,0,0,1-.239.129c-.239.073-.434-.1-.434-.379-.006-.71-.006-1.426,0-2.136,0-.171-.037-.245-.226-.288a2.46,2.46,0,0,1-1.922-2.38c-.012-1.242-.006-2.478,0-3.721a2.493,2.493,0,0,1,2.6-2.6c1.769-.006,3.531,0,5.3,0A1.219,1.219,0,0,0,8.1,3.832ZM2.731,14.364c.11-.067.177-.1.239-.141,1.144-.722,2.283-1.45,3.433-2.166a1.066,1.066,0,0,1,.514-.147c.667-.018,1.328-.006,1.995-.006a1.8,1.8,0,0,0,1.94-1.928c.006-1.175,0-2.356,0-3.531a2.42,2.42,0,0,0-.049-.52,1.8,1.8,0,0,0-1.854-1.4c-2.148-.006-4.3,0-6.444,0-.122,0-.245.012-.367.024A1.764,1.764,0,0,0,.589,6.2c-.018,1.34-.018,2.674,0,4.014a1.769,1.769,0,0,0,1.646,1.677c.4.024.5.116.5.52ZM16.91,10.5v-.288c0-.575,0-1.15.006-1.72,0-.337.1-.434.434-.453a1.767,1.767,0,0,0,1.7-1.726q.028-1.974,0-3.947A1.75,1.75,0,0,0,17.3.656C15.05.644,12.8.65,10.552.656a1.716,1.716,0,0,0-1.7,1.377,14.369,14.369,0,0,0-.086,1.793H9a2.519,2.519,0,0,1,2.533,2.515c.006.483,0,.961,0,1.444,0,.08.006.159.012.257.4,0,.783-.018,1.169.006a1.144,1.144,0,0,1,.532.153c1.132.7,2.252,1.42,3.372,2.13C16.7,10.374,16.781,10.423,16.91,10.5Z" fill="#fff"/>
    <path id="Path_19123" data-name="Path 19123" d="M59.81,99.087c-.1.086-.177.214-.294.263a.3.3,0,0,1-.386-.165,6.232,6.232,0,0,1-.441-.881.764.764,0,0,0-.936-.575,9.345,9.345,0,0,1-1.31.006.307.307,0,0,0-.33.208c-.2.4-.4.808-.612,1.206a.341.341,0,0,1-.569.11.351.351,0,0,1-.031-.447c.22-.434.447-.869.667-1.31.459-.906.924-1.811,1.377-2.717.073-.153.159-.282.349-.288s.294.129.373.288q1,1.983,2.013,3.965C59.724,98.842,59.749,98.94,59.81,99.087ZM57.3,95.6c-.257.5-.483.961-.722,1.426h1.444C57.785,96.547,57.552,96.1,57.3,95.6Z" transform="translate(-51.59 -88.756)" fill="#fff"/>
    <path id="Path_19124" data-name="Path 19124" d="M196.1,34.86l.526-1.016h-1.144c-.422,0-.844.006-1.261,0-.312-.006-.5-.275-.349-.5a.513.513,0,0,1,.361-.177c.471-.024.949-.012,1.42-.012a.363.363,0,0,0,.073-.031V32.5c.006-.257.122-.4.337-.4s.343.141.349.392c.006.2.006.4.006.594,0,.012.012.024.031.067h1.15a1.385,1.385,0,0,1,.275.012.275.275,0,0,1,.257.3.729.729,0,0,1-.19.33.2.2,0,0,1-.171.037c-.349-.073-.49.11-.6.41a10.047,10.047,0,0,1-.5,1c.184.129.386.263.587.4.226.153.459.306.685.465.208.147.257.33.141.508a.35.35,0,0,1-.526.061c-.434-.288-.863-.575-1.279-.857-.337.343-.655.673-.979,1a.359.359,0,0,1-.459.086c-.22-.122-.226-.373-.024-.581.288-.288.569-.575.881-.887-.306-.208-.587-.392-.857-.581a.327.327,0,0,1-.11-.477.344.344,0,0,1,.5-.08,1.683,1.683,0,0,1,.171.116C195.634,34.542,195.848,34.689,196.1,34.86Z" transform="translate(-182.066 -30.177)" fill="#fff"/>
  </g>
</svg>
