<svg id="Iconly_Bold_Location" data-name="Iconly/Bold/Location" xmlns="http://www.w3.org/2000/svg" width="12" height="12" viewBox="0 0 12 12">
  <rect id="Iconly_Bold_Location_Background_" data-name="Iconly/Bold/Location (Background)" width="12" height="12" fill="none"/>
  <g id="Location" transform="translate(1.75 1)">
    <path id="Location-2" data-name="Location" d="M4.252,10a.677.677,0,0,1-.367-.124,10.764,10.764,0,0,1-2.77-2.57A5.2,5.2,0,0,1,0,4.159,4.208,4.208,0,0,1,4.247,0,4.211,4.211,0,0,1,8.5,4.159,5.2,5.2,0,0,1,7.385,7.306a10.973,10.973,0,0,1-2.77,2.57A.662.662,0,0,1,4.252,10Zm0-7.112a1.388,1.388,0,1,0,1.406,1.4A1.4,1.4,0,0,0,4.247,2.888Z" fill="#00416b"/>
  </g>
</svg>
