<?xml version="1.0" encoding="utf-8"?>
<!-- Generator: Adobe Illustrator 26.0.2, SVG Export Plug-In . SVG Version: 6.00 Build 0)  -->
<svg version="1.1" id="Layer_1" xmlns="http://www.w3.org/2000/svg" xmlns:xlink="http://www.w3.org/1999/xlink" 
	 viewBox="0 0 1080 1080" style="enable-background:new 0 0 1080 1080;" xml:space="preserve">
<style type="text/css">
	.st0{fill:#EDAA43;}
	.st1{fill:#00416B;}
</style>
<g>
	<path class="st0" d="M926.09,702.5H520.82c-3.24,0-5.86-2.63-5.86-5.86v-57.61c0-3.24,2.63-5.86,5.86-5.86h405.27
		c3.24,0,5.86,2.63,5.86,5.86v57.61C931.95,699.88,929.32,702.5,926.09,702.5z"/>
	<g>
		<path class="st1" d="M594.94,643.31c1.42,0,2.12,0.71,2.12,2.13v7.93c0,1.35-0.71,2.12-2.12,2.12h-17.85
			c-1.35,0-2.12,0.71-2.12,2.13v2.27c0,1.35,0.78,2.12,2.12,2.12h11.69c1.42,0,2.12,0.71,2.12,2.12v7.93c0,1.35-0.71,2.12-2.12,2.12
			h-11.69c-1.35,0-2.12,0.71-2.12,2.13v14.45c0,1.35-0.71,2.12-2.12,2.12h-8.36c-1.35,0-2.13-0.78-2.13-2.12v-45.33
			c0-1.42,0.78-2.13,2.13-2.13H594.94z"/>
		<path class="st1" d="M632.48,643.31c1.42,0,2.12,0.71,2.12,2.13v45.33c0,1.35-0.71,2.12-2.12,2.12h-7.79
			c-1.35,0-2.12-0.78-2.12-2.12v-45.33c0-1.42,0.78-2.13,2.12-2.13H632.48z"/>
		<path class="st1" d="M675.48,643.31c1.2,0,1.98,0.5,2.48,1.63l9.63,23.58c0.28,0.64,0.85,0.5,0.85-0.21v-22.88
			c0-1.42,0.78-2.13,2.12-2.13h7.93c1.42,0,2.12,0.71,2.12,2.13v45.33c0,1.35-0.71,2.12-2.12,2.12h-10.41c-1.2,0-1.98-0.5-2.48-1.63
			l-9.63-23.58c-0.28-0.64-0.85-0.5-0.85,0.21v22.88c0,1.35-0.71,2.12-2.12,2.12h-7.93c-1.35,0-2.12-0.78-2.12-2.12v-45.33
			c0-1.42,0.78-2.13,2.12-2.13H675.48z"/>
		<path class="st1" d="M746.87,643.31c13.32,0,17.71,5.38,17.71,17v15.51c0,11.61-4.39,17.07-17.71,17.07h-15.79
			c-1.35,0-2.12-0.78-2.12-2.12v-45.26c0-1.42,0.71-2.13,2.12-2.2H746.87z M747.09,680.71c3.4,0,5.1-0.57,5.1-4.82
			c0-0.07,0-15.51,0-15.58c0-4.39-1.7-4.82-5.1-4.82h-3.82c-1.35,0-2.12,0.71-2.12,2.13v20.96c0,1.35,0.78,2.12,2.12,2.12H747.09z"
			/>
		<path class="st1" d="M824.08,643.31c1.42,0,2.12,0.71,2.12,2.13v7.93c0,1.35-0.71,2.12-2.12,2.12h-17.14
			c-1.35,0-2.12,0.71-2.12,2.13v2.27c0,1.35,0.78,2.12,2.12,2.12h10.98c1.42,0,2.12,0.71,2.12,2.12v7.93c0,1.35-0.71,2.12-2.12,2.12
			h-10.98c-1.35,0-2.12,0.71-2.12,2.13v2.27c0,1.35,0.78,2.12,2.12,2.12h17.14c1.42,0,2.12,0.71,2.12,2.12v7.93
			c0,1.42-0.71,2.12-2.12,2.12h-29.75c-1.35,0-2.12-0.78-2.12-2.12v-45.33c0-1.42,0.78-2.13,2.12-2.13H824.08z"/>
		<path class="st1" d="M890.23,689.07c0.99,1.84-0.14,3.83-2.34,3.83h-8.07c-0.71,0-1.35-0.35-1.63-0.99l-7.37-14.24
			c-0.14-0.21-0.35-0.36-0.57-0.36h-2.83c-1.27,0-2.2,0.92-2.2,2.2v11.19c0,1.27-0.92,2.2-2.2,2.2h-7.93c-1.28,0-2.2-0.92-2.2-2.2
			v-45.19c0-1.28,0.92-2.2,2.2-2.2h15.51c12.61,0,17.71,5.38,17.71,17c0,6.59-1.63,11.19-5.38,13.88c-0.28,0.21-0.35,0.57-0.21,0.92
			L890.23,689.07z M867.43,655.49c-1.27,0-2.2,0.92-2.2,2.2v5.24c0,1.27,0.92,2.2,2.2,2.2h3.61c3.4,0,5.1-0.42,5.1-4.82
			s-1.7-4.82-5.1-4.82H867.43z"/>
	</g>
	<path class="st1" d="M360.87,491.44h-20.44c-0.83,0-1.58,0.09-2.28,0.22c-15.29-0.71-24.31-4.28-24.31-21.1
		c0-19.91,12.65-21.26,33.37-21.26h55.83c5.38,0,8.07-2.69,8.07-8.07v-30.14c0-5.11-2.69-8.07-8.07-8.07h-70.09
		c-17.76,0-65.39,3.77-65.39,67.54c0,63.78,47.63,67.54,65.39,67.54h20.44c0.83,0,1.58-0.09,2.28-0.22
		c15.29,0.7,24.31,4.28,24.31,21.1c0,19.91-12.65,21.26-33.37,21.26H316.7h-65.14h-29.91c-20.72,0-33.37-1.34-33.37-21.26
		c0-16.82,9.02-20.39,24.31-21.1c0.7,0.13,1.45,0.22,2.28,0.22h20.44l-5.21-46.45c-0.7-0.13-1.45-0.22-2.28-0.22h-20.44
		c-17.76,0-65.39,3.77-65.39,67.54c0,63.77,47.63,67.54,65.39,67.54h44.17h65.14h44.17c17.76,0,65.39-3.77,65.39-67.54
		C426.26,495.21,378.63,491.44,360.87,491.44z"/>
	<g>
		<path class="st1" d="M486.08,519.56c4.2,0,7.6,3.4,7.6,7.6v111.61c0,17.76-3.77,65.39-67.54,65.39
			c-56.51,0-64.3-27.98-65.65-48.97c-0.27-4.84,2.15-7.8,7-8.88l30.41-6.73c5.38-1.08,8.34,1.35,8.88,7
			c1.08,12.92,13.55,11.3,19.36,11.3c19.91,0,21.26-12.65,21.26-33.37v-97.35c0-4.2,3.4-7.6,7.6-7.6H486.08z"/>
	</g>
	<g>
		<path class="st1" d="M874.09,523.06h55.83c5.38,0,8.07-2.69,8.07-8.07v-30.14c0-5.11-2.69-8.07-8.07-8.07h-70.09
			c-17.76,0-65.39,3.77-65.39,67.54c0,8.23,0.8,15.45,2.22,21.8h-46.38c1.7-7.72,1.99-14.8,1.99-19.64V512.3
			c0-17.76-3.77-65.39-67.54-65.39c-63.78,0-67.54,47.63-67.54,65.39v34.17c0,4.85,0.28,11.92,1.99,19.64H604.8
			c-1.03-0.36-2.23-0.54-3.62-0.54h-31.87c-5.11,0-8.07-2.96-8.07-8.07V392.39c0-5.38-2.69-8.07-8.07-8.07h-30.14
			c-5.11,0-8.07,2.69-8.07,8.07v211.4c0,5.11,2.96,8.07,8.07,8.07h51.25h26.91h258.65h20.72h49.38c5.38,0,8.07-2.69,8.07-8.07
			v-30.14c0-5.11-2.69-8.07-8.07-8.07h-55.83c-20.72,0-33.37-1.35-33.37-21.26S853.37,523.06,874.09,523.06z M663.46,526.56
			c0-20.72,1.35-33.37,21.26-33.37c19.91,0,21.26,12.65,21.26,33.37v5.65c0,20.72-1.35,33.37-21.26,33.37
			c-19.91,0-21.26-12.65-21.26-33.37V526.56z"/>
		<circle class="st1" cx="657.71" cy="403.02" r="27.18"/>
		<circle class="st1" cx="717.07" cy="403.02" r="27.18"/>
	</g>
	<g>
		<g>
			<path class="st1" d="M204.43,676.98c0-14.8,12.38-27.18,27.18-27.18c14.8,0,27.18,12.38,27.18,27.18
				c0,14.8-12.38,27.18-27.18,27.18C216.81,704.16,204.43,691.78,204.43,676.98z"/>
		</g>
		<g>
			<path class="st1" d="M263.78,676.98c0-14.8,12.38-27.18,27.18-27.18c14.8,0,27.18,12.38,27.18,27.18
				c0,14.8-12.38,27.18-27.18,27.18C276.16,704.16,263.78,691.78,263.78,676.98z"/>
		</g>
	</g>
	<path class="st0" d="M802.87,409.28h133.54c0.88,0,1.59-0.71,1.59-1.59v-9.33c0-0.88-0.71-1.59-1.59-1.59H802.87
		c-0.88,0-1.59,0.71-1.59,1.59v9.33C801.28,408.56,801.99,409.28,802.87,409.28z"/>
</g>
</svg>
