<svg id="Log_out" data-name="Log out" xmlns="http://www.w3.org/2000/svg" width="11.767" height="12.673" viewBox="0 0 11.767 12.673">
  <path id="Log_out-2" data-name="Log out" d="M4.657,12.673H.981a.993.993,0,0,1-.981-1V1A.993.993,0,0,1,.981,0H4.657A2.856,2.856,0,0,1,7.476,2.883V3.51a.37.37,0,1,1-.735,0V2.883A2.112,2.112,0,0,0,4.657.752H.981A.252.252,0,0,0,.735,1V11.67a.251.251,0,0,0,.245.251H4.657A2.112,2.112,0,0,0,6.74,9.787V9.16a.37.37,0,1,1,.735,0v.628A2.856,2.856,0,0,1,4.657,12.673ZM9.2,8.949a.361.361,0,0,1-.259-.111.381.381,0,0,1,0-.532L10.5,6.711H4.045a.376.376,0,1,1,0-.752h6.47L8.958,4.366a.385.385,0,0,1,0-.533.364.364,0,0,1,.517,0l2.181,2.228a.347.347,0,0,1,.067.1.362.362,0,0,1-.1.456L9.465,8.84a.361.361,0,0,1-.259.11Z" transform="translate(0)" fill="#fff"/>
</svg>
