<svg xmlns="http://www.w3.org/2000/svg" width="28.287" height="28.286" viewBox="0 0 28.287 28.286">
  <g id="Group_16299" data-name="Group 16299" transform="translate(-174.784 -430.784)">
    <g id="Group_16298" data-name="Group 16298" transform="translate(-11.016 23.871)">
      <path id="Path_19802" data-name="Path 19802" d="M171.188,28.07h0a13.927,13.927,0,1,1,13.927-13.927A13.927,13.927,0,0,1,171.188,28.07Z" transform="translate(28.755 406.914)" fill="none" stroke="#00416b" stroke-width="0.432"/>
    </g>
    <g id="Mail" transform="translate(182 440)">
      <path id="Mail-2" data-name="Mail" d="M11.406,9H1.594A1.569,1.569,0,0,1,0,7.461V1.54A1.57,1.57,0,0,1,1.594,0h9.812A1.569,1.569,0,0,1,13,1.54V7.461A1.569,1.569,0,0,1,11.406,9ZM1.594.71a.845.845,0,0,0-.859.829V7.461a.845.845,0,0,0,.859.829h9.812a.845.845,0,0,0,.859-.829V1.54A.845.845,0,0,0,11.406.71ZM6.512,5.744a1,1,0,0,1-.569-.176L1.994,2.846a.348.348,0,0,1-.086-.5.375.375,0,0,1,.514-.082L6.369,4.989a.251.251,0,0,0,.285,0l3.923-2.72a.375.375,0,0,1,.514.081.347.347,0,0,1-.085.5L7.084,5.565A1,1,0,0,1,6.512,5.744Z" fill="#00416b"/>
    </g>
  </g>
</svg>
