<svg xmlns="http://www.w3.org/2000/svg" xmlns:xlink="http://www.w3.org/1999/xlink" width="19.918" height="20.1" viewBox="0 0 19.918 20.1">
  <defs>
    <clipPath id="clip-path">
      <rect id="Rectangle_590" data-name="Rectangle 590" width="19.918" height="20.1" fill="none" stroke="#fff" stroke-width="0.5"/>
    </clipPath>
  </defs>
  <g id="Group_15744" data-name="Group 15744" transform="translate(0 0)">
    <g id="Group_15743" data-name="Group 15743" transform="translate(0 0)" clip-path="url(#clip-path)">
      <path id="Path_19458" data-name="Path 19458" d="M8.429,20.356V2.83H9.875V1.746H11.32V.662h1.445V14.755m-4.336,5.6V10.78H2.65v9.576m15.538,0v-5.6H9.876v5.6m-9.214,0H20.174" transform="translate(-0.459 -0.459)" fill="none" stroke="#fff" stroke-linecap="round" stroke-linejoin="round" stroke-width="0.5"/>
      <path id="Path_19459" data-name="Path 19459" d="M17.255,7.724H15.809V8.81H14.364V9.894H12.917m0,7.408H7.137m2.891,0V25.25M8.582,17.3v7.95m2.891-7.95v7.95m9.938-4.156H15.628m5.782,1.084H15.628m5.782,1.083H15.628m5.782,1.085H15.628M13.822,11.518h2.53m-2.53,1.265h2.53m-2.53,1.265h2.53m-2.53,1.264h2.53m-2.53,1.265h2.53m-2.53,1.265h2.53" transform="translate(-4.946 -5.353)" fill="none" stroke="#fff" stroke-linecap="round" stroke-linejoin="round" stroke-width="0.5"/>
    </g>
  </g>
</svg>
