<svg xmlns="http://www.w3.org/2000/svg" width="14.863" height="14.997" viewBox="0 0 14.863 14.997">
  <g id="Group_18171" data-name="Group 18171" transform="translate(1084.832 -1721.856)">
    <path id="Path_21024" data-name="Path 21024" d="M7.567,203.107v-12.9H8.631v-.8H9.7v-.8h1.064v10.374m-3.192,4.123v-7.049H3.312v7.049m11.438,0v-4.123H8.632v4.123m-6.783,0H16.212" transform="translate(-1086.431 1533.496)" fill="none" stroke="#fff" stroke-linecap="round" stroke-linejoin="round" stroke-width="0.5"/>
    <path id="Path_21025" data-name="Path 21025" d="M15.772,195.672H14.708v.8H13.644v.8H12.579m0,5.453H8.324m2.128,0v5.851m-1.064-5.852v5.852m2.128-5.852v5.852m7.315-3.059H14.575m4.256.8H14.575m4.256.8H14.575m4.256.8H14.575m-1.33-9.443h1.862m-1.862.931h1.862m-1.862.931h1.862m-1.862.931h1.862m-1.862.931h1.862m-1.862.931h1.862" transform="translate(-1091.443 1528.03)" fill="none" stroke="#fff" stroke-linecap="round" stroke-linejoin="round" stroke-width="0.5"/>
  </g>
</svg>
