<svg xmlns="http://www.w3.org/2000/svg" xmlns:xlink="http://www.w3.org/1999/xlink" width="114" height="114" viewBox="0 0 114 114">
  <defs>
    <filter id="Path_Success_2" x="0" y="0" width="114" height="114" filterUnits="userSpaceOnUse">
      <feOffset input="SourceAlpha"/>
      <feGaussianBlur stdDeviation="3.5" result="blur"/>
      <feFlood flood-opacity="0.161"/>
      <feComposite operator="in" in2="blur"/>
      <feComposite in="SourceGraphic"/>
    </filter>
  </defs>
  <g id="Group_15441" data-name="Group 15441" transform="translate(-131.5 -278.5)">
    <g transform="matrix(1, 0, 0, 1, 131.5, 278.5)" filter="url(#Path_Success_2)">
      <g id="Path_Success_2-2" data-name="Path Success 2" transform="translate(10.5 10.5)" fill="#edaa43">
        <path d="M 46.5 89 C 40.76078414916992 89 35.19535446166992 87.87686157226562 29.95830726623535 85.66178131103516 C 24.89792251586914 83.52141571044922 20.35238456726074 80.45644378662109 16.44796943664551 76.55203247070312 C 12.54355430603027 72.64761352539062 9.478584289550781 68.10207366943359 7.338215351104736 63.04169082641602 C 5.123138427734375 57.80464553833008 4 52.23921585083008 4 46.5 C 4 40.76078414916992 5.123138427734375 35.19535446166992 7.338215351104736 29.95830726623535 C 9.478584289550781 24.89792251586914 12.54355430603027 20.35238456726074 16.44796943664551 16.44796943664551 C 20.35238456726074 12.54355430603027 24.89792251586914 9.478584289550781 29.95830726623535 7.338215351104736 C 35.19535446166992 5.123138427734375 40.76078414916992 4 46.5 4 C 52.23921585083008 4 57.80464553833008 5.123138427734375 63.04169082641602 7.338215351104736 C 68.10207366943359 9.478584289550781 72.64761352539062 12.54355430603027 76.55203247070312 16.44796943664551 C 80.45644378662109 20.35238456726074 83.52141571044922 24.89792251586914 85.66178131103516 29.95830726623535 C 87.87686157226562 35.19535446166992 89 40.76078414916992 89 46.5 C 89 52.23921585083008 87.87686157226562 57.80464553833008 85.66178131103516 63.04169082641602 C 83.52141571044922 68.10207366943359 80.45644378662109 72.64761352539062 76.55203247070312 76.55203247070312 C 72.64761352539062 80.45644378662109 68.10207366943359 83.52141571044922 63.04169082641602 85.66178131103516 C 57.80464553833008 87.87686157226562 52.23921585083008 89 46.5 89 Z" stroke="none"/>
        <path d="M 46.5 8 C 25.27101898193359 8 8 25.27101898193359 8 46.5 C 8 67.72898101806641 25.27101898193359 85 46.5 85 C 67.72898101806641 85 85 67.72898101806641 85 46.5 C 85 25.27101898193359 67.72898101806641 8 46.5 8 M 46.5 0 C 72.18124389648438 0 93 20.81876373291016 93 46.5 C 93 72.18124389648438 72.18124389648438 93 46.5 93 C 20.81876373291016 93 0 72.18124389648438 0 46.5 C 0 20.81876373291016 20.81876373291016 0 46.5 0 Z" stroke="none" fill="#fff"/>
      </g>
    </g>
    <g id="Group_15431" data-name="Group 15431" transform="translate(0.563 -5.32)">
      <g id="warning-01" transform="translate(183.437 319.32)">
        <path id="Path_19210" data-name="Path 19210" d="M33.6,29.244V19.56c0-2.437.955-3.689,3.36-4.15a5.716,5.716,0,0,1,4.381.725A3.2,3.2,0,0,1,42.889,18.9c0,6.917.033,13.867,0,20.784a3.227,3.227,0,0,1-2.141,3.063,6.063,6.063,0,0,1-4.908.066,3.357,3.357,0,0,1-2.24-3.36Z" transform="translate(-33.6 -15.268)" fill="#fff"/>
        <path id="Path_19211" data-name="Path 19211" d="M38.375,124.356a4.579,4.579,0,1,1,.033-9.157,4.579,4.579,0,0,1-.033,9.157Z" transform="translate(-33.731 -82.283)" fill="#fff"/>
      </g>
    </g>
  </g>
</svg>
