<svg xmlns="http://www.w3.org/2000/svg" width="12.736" height="12.074" viewBox="0 0 12.736 12.074">
  <path id="Path_19213" data-name="Path 19213" d="M2804.051,1596.338l-3.38-.4-1.4-2.965c0-.009-.01-.017-.015-.026s-.023-.041-.037-.061-.023-.033-.036-.049-.03-.033-.045-.049a.52.52,0,0,0-.047-.043c-.017-.013-.034-.026-.051-.038s-.038-.024-.058-.035-.018-.012-.028-.017-.02-.006-.03-.01a.636.636,0,0,0-.062-.022.559.559,0,0,0-.125-.025.563.563,0,0,0-.064,0,.579.579,0,0,0-.064,0,.549.549,0,0,0-.062.009.534.534,0,0,0-.062.016.664.664,0,0,0-.063.022c-.009,0-.02.006-.03.01s-.018.012-.028.017-.038.022-.057.034a.524.524,0,0,0-.052.038.486.486,0,0,0-.047.043.62.62,0,0,0-.045.05c-.013.015-.024.031-.036.049a.7.7,0,0,0-.036.061c0,.009-.011.016-.016.026l-1.4,2.964-3.38.4a.661.661,0,0,0-.378,1.136l2.472,2.357-.648,3.243a.662.662,0,0,0,.957.715l2.972-1.566,2.971,1.566a.662.662,0,0,0,.958-.715l-.649-3.243,2.472-2.357a.661.661,0,0,0-.378-1.136Z" transform="translate(-2792.309 -1592.191)" fill="none" stroke="#fff" stroke-width="0.8"/>
</svg>
