<svg id="Group_17359" data-name="Group 17359" xmlns="http://www.w3.org/2000/svg" xmlns:xlink="http://www.w3.org/1999/xlink" width="16.08" height="14.869" viewBox="0 0 16.08 14.869">
  <defs>
    <clipPath id="clip-path">
      <rect id="Rectangle_3291" data-name="Rectangle 3291" width="16.08" height="14.869" fill="#fff"/>
    </clipPath>
  </defs>
  <g id="Group_17358" data-name="Group 17358" transform="translate(0 0)" clip-path="url(#clip-path)">
    <path id="Path_20579" data-name="Path 20579" d="M15.267,10.546c-.4-.2-2.342-1.149-2.7-1.277s-.627-.2-.892.2S10.644,10.742,10.417,11s-.46.3-.861.1a10.693,10.693,0,0,1-3.18-1.95,11.744,11.744,0,0,1-2.2-2.711c-.226-.394-.022-.6.174-.8.181-.181.393-.461.6-.687.053-.068.1-.128.143-.189A4.251,4.251,0,0,0,5.34,4.29a.708.708,0,0,0-.03-.687c-.1-.2-.892-2.13-1.224-2.916S3.43.037,3.2.037,2.7,0,2.44,0A1.462,1.462,0,0,0,1.382.491,4.4,4.4,0,0,0,0,3.769,5.006,5.006,0,0,0,.2,5.107a8.928,8.928,0,0,0,1.412,2.72c.2.257,2.735,4.351,6.753,5.93,4.026,1.564,4.026,1.043,4.752.975a3.945,3.945,0,0,0,2.666-1.866A3.243,3.243,0,0,0,16.022,11c-.1-.159-.363-.257-.755-.453" transform="translate(0 0)" fill="#fff"/>
  </g>
</svg>
