<svg xmlns="http://www.w3.org/2000/svg" width="18" height="18" viewBox="0 0 18 18">
  <g id="Path" fill="#00416b">
    <path d="M 16.46648788452148 17.29356956481934 L 11.82094573974609 12.65731620788574 L 11.82094573974609 12.05167007446289 L 11.82094573974609 11.8498706817627 L 11.68087577819824 11.70460987091064 L 11.40300559997559 11.4164400100708 L 11.07522583007812 11.07651042938232 L 10.71713542938232 11.38434028625488 C 9.595695495605469 12.34839057922363 8.165375709533691 12.87931060791016 6.689655303955078 12.87931060791016 C 3.276665449142456 12.87931060791016 0.4999954402446747 10.10264015197754 0.4999954402446747 6.68966007232666 C 0.4999954402446747 3.276670217514038 3.276665449142456 0.5000002384185791 6.689655303955078 0.5000002384185791 C 10.10263538360596 0.5000002384185791 12.87930583953857 3.276670217514038 12.87930583953857 6.68966007232666 C 12.87930583953857 8.165369987487793 12.34838581085205 9.59568977355957 11.3843355178833 10.71714019775391 L 11.07651519775391 11.07522010803223 L 11.41642570495605 11.40299987792969 L 11.7045955657959 11.68088054656982 L 11.84986591339111 11.82096004486084 L 12.05166530609131 11.82096004486084 L 12.65731239318848 11.82096004486084 L 17.29356384277344 16.46649169921875 L 16.46648788452148 17.29356956481934 Z" stroke="none"/>
    <path d="M 16.46612358093262 16.58681297302246 L 16.58680725097656 16.46612930297852 L 12.44991874694824 12.32096004486084 L 12.32094573974609 12.32096004486084 L 12.32094573974609 12.44992351531982 L 16.46612358093262 16.58681297302246 M 6.689655303955078 12.37931060791016 C 8.045835494995117 12.37931060791016 9.360395431518555 11.89130020141602 10.39118576049805 11.00518035888672 L 10.72137355804443 10.72134017944336 L 11.00517559051514 10.39120006561279 C 11.89129543304443 9.360390663146973 12.37930583953857 8.045829772949219 12.37930583953857 6.68966007232666 C 12.37930583953857 3.552370309829712 9.826935768127441 1.000000238418579 6.689655303955078 1.000000238418579 C 3.55236554145813 1.000000238418579 0.9999954700469971 3.552370309829712 0.9999954700469971 6.68966007232666 C 0.9999954700469971 9.826940536499023 3.55236554145813 12.37931060791016 6.689655303955078 12.37931060791016 M 16.46683502197266 18.00032043457031 L 11.32094573974609 12.86472034454346 L 11.32094573974609 12.05167007446289 L 11.04307556152344 11.76350021362305 C 9.869805335998535 12.7721004486084 8.346625328063965 13.37931060791016 6.689655303955078 13.37931060791016 C 2.994905471801758 13.37931060791016 -4.551086476567434e-06 10.38440036773682 -4.551086476567434e-06 6.68966007232666 C -4.551086476567434e-06 2.99491024017334 2.994905471801758 2.172851623072347e-07 6.689655303955078 2.172851623072347e-07 C 10.38439559936523 2.172851623072347e-07 13.37930583953857 2.99491024017334 13.37930583953857 6.68966007232666 C 13.37930583953857 8.346630096435547 12.77208518981934 9.869810104370117 11.76349544525146 11.04308032989502 L 12.05166530609131 11.32096004486084 L 12.86471557617188 11.32096004486084 L 18.00031471252441 16.46684074401855 L 16.46683502197266 18.00032043457031 Z" stroke="none" fill="#00416b"/>
  </g>
</svg>
