<svg xmlns="http://www.w3.org/2000/svg" width="13.002" height="12.603" viewBox="0 0 13.002 12.603">
  <g id="Group_18169" data-name="Group 18169" transform="translate(1010.069 -1679.386)">
    <path id="Path_21019" data-name="Path 21019" d="M333.373,5.716l-.665-.931L338.959.662l6.251,4.123-.665.931-5.586-3.857Zm.665-.474v6.193m9.576-6.342v6.342m1.2,0h-11.97v1.33h11.97Z" transform="translate(-1342.527 1678.974)" fill="none" stroke="#fff" stroke-linecap="round" stroke-linejoin="round" stroke-width="0.5"/>
    <path id="Path_21020" data-name="Path 21020" d="M348.261,30.111V25.056a.266.266,0,0,0-.267-.265h-2.66a.266.266,0,0,0-.266.266v5.054m6.916-1.862V25.056a.266.266,0,0,0-.266-.266h-1.862a.266.266,0,0,0-.266.266v3.193m-.665,0h3.725m-3.06-1.729h2.394" transform="translate(-1352.094 1660.298)" fill="none" stroke="#fff" stroke-linecap="round" stroke-linejoin="round" stroke-width="0.5"/>
    <path id="Path_21021" data-name="Path 21021" d="M348.783,36.177a.2.2,0,0,1-.2.2h-.4a.2.2,0,1,1-.015-.4h.414a.2.2,0,0,1,.2.2h0" transform="translate(-1354.346 1651.639)" fill="none" stroke="#fff" stroke-width="0.5"/>
  </g>
</svg>
