<svg xmlns="http://www.w3.org/2000/svg" width="28.287" height="28.286" viewBox="0 0 28.287 28.286">
  <g id="Group_16295" data-name="Group 16295" transform="translate(-185.8 -453.3)">
    <path id="Path_19800" data-name="Path 19800" d="M171.188,105.447h0A13.927,13.927,0,1,1,185.116,91.52,13.927,13.927,0,0,1,171.188,105.447Z" transform="translate(28.755 375.923)" fill="none" stroke="#00416b" stroke-width="0.432"/>
    <path id="Path_19801" data-name="Path 19801" d="M169.517,102.325a7.678,7.678,0,0,0,11.812-6.818,5.459,5.459,0,0,0,1.347-1.4,5.409,5.409,0,0,1-1.55.425,2.7,2.7,0,0,0,1.187-1.493,5.419,5.419,0,0,1-1.714.655,2.7,2.7,0,0,0-4.6,2.463,7.662,7.662,0,0,1-5.564-2.821,2.7,2.7,0,0,0,.835,3.6,2.7,2.7,0,0,1-1.223-.338,2.7,2.7,0,0,0,2.165,2.682,2.7,2.7,0,0,1-1.219.046,2.7,2.7,0,0,0,2.521,1.875,5.425,5.425,0,0,1-4,1.118" transform="translate(23.847 369.815)" fill="#00416b"/>
  </g>
</svg>
