<svg xmlns="http://www.w3.org/2000/svg" width="12.472" height="7.946" viewBox="0 0 12.472 7.946">
  <g id="view2-01" transform="translate(0 0)">
    <g id="Group_18870" data-name="Group 18870" transform="translate(0 0)">
      <path id="Path_21544" data-name="Path 21544" d="M12.522,4.074a2.7,2.7,0,0,1-.183.3A11.1,11.1,0,0,1,9.214,7.125a5.976,5.976,0,0,1-2.606.839A5.2,5.2,0,0,1,4.39,7.616,9.022,9.022,0,0,1,1.544,5.789,11.967,11.967,0,0,1,.183,4.315a.435.435,0,0,1,0-.625A11.147,11.147,0,0,1,3.341.886,5.712,5.712,0,0,1,6.5.034,5.56,5.56,0,0,1,8.729.626,10.713,10.713,0,0,1,12.4,3.708a1.3,1.3,0,0,1,.122.223C12.522,3.976,12.522,4.025,12.522,4.074Zm-.931-.064c-.046-.055-.076-.095-.113-.134-.381-.391-.748-.8-1.153-1.172A7.5,7.5,0,0,0,7.7,1.093,4.216,4.216,0,0,0,5.855.873a5.493,5.493,0,0,0-2.227.8A10.447,10.447,0,0,0,1.238,3.7c-.085.095-.168.2-.259.305.241.262.47.522.711.766A8.789,8.789,0,0,0,4.43,6.741a4.7,4.7,0,0,0,1.657.406,4.794,4.794,0,0,0,2.465-.6A9.225,9.225,0,0,0,10.862,4.8C11.109,4.544,11.344,4.275,11.591,4.01Z" transform="translate(-0.05 -0.029)" fill="#fff"/>
      <path id="Path_21545" data-name="Path 21545" d="M128.529,51.871a2.465,2.465,0,1,1-2.45-2.474A2.468,2.468,0,0,1,128.529,51.871Zm-.824-.015a1.643,1.643,0,1,0-1.632,1.651A1.646,1.646,0,0,0,127.705,51.856Z" transform="translate(-119.829 -47.89)" fill="#fff"/>
    </g>
  </g>
</svg>
