<svg id="view2-01" xmlns="http://www.w3.org/2000/svg" width="10.772" height="6.864" viewBox="0 0 10.772 6.864">
  <g id="Group_17362" data-name="Group 17362" transform="translate(0 0)">
    <path id="Path_20580" data-name="Path 20580" d="M10.822,3.523a2.333,2.333,0,0,1-.158.258,9.587,9.587,0,0,1-2.7,2.377,5.162,5.162,0,0,1-2.251.725,4.491,4.491,0,0,1-1.916-.3A7.793,7.793,0,0,1,1.34,5,10.336,10.336,0,0,1,.165,3.731a.376.376,0,0,1,0-.54A9.628,9.628,0,0,1,2.892.769,4.934,4.934,0,0,1,5.622.034,4.8,4.8,0,0,1,7.546.545a9.253,9.253,0,0,1,3.168,2.662,1.123,1.123,0,0,1,.105.192C10.822,3.438,10.822,3.481,10.822,3.523Zm-.8-.055c-.04-.047-.066-.082-.1-.116-.329-.337-.646-.693-1-1.012A6.477,6.477,0,0,0,6.658.948,3.641,3.641,0,0,0,5.064.758a4.744,4.744,0,0,0-1.924.688A9.023,9.023,0,0,0,1.076,3.2C1,3.286.932,3.373.852,3.467c.208.227.406.451.614.661a7.591,7.591,0,0,0,2.367,1.7,4.062,4.062,0,0,0,1.431.351,4.141,4.141,0,0,0,2.129-.519,7.968,7.968,0,0,0,1.995-1.51C9.6,3.929,9.8,3.7,10.018,3.467Z" transform="translate(-0.05 -0.029)" fill="#737373"/>
    <path id="Path_20581" data-name="Path 20581" d="M127.857,51.534a2.129,2.129,0,1,1-2.116-2.137A2.131,2.131,0,0,1,127.857,51.534Zm-.712-.013a1.419,1.419,0,1,0-1.41,1.426A1.422,1.422,0,0,0,127.145,51.521Z" transform="translate(-120.342 -48.096)" fill="#737373"/>
  </g>
</svg>
