<svg id="Group_17356" data-name="Group 17356" xmlns="http://www.w3.org/2000/svg" xmlns:xlink="http://www.w3.org/1999/xlink" width="19.865" height="19.87" viewBox="0 0 19.865 19.87">
  <defs>
    <clipPath id="clip-path">
      <rect id="Rectangle_3290" data-name="Rectangle 3290" width="19.865" height="19.87" fill="#fff"/>
    </clipPath>
  </defs>
  <g id="Group_17355" data-name="Group 17355" transform="translate(0 0)" clip-path="url(#clip-path)">
    <path id="Path_20577" data-name="Path 20577" d="M19.86,9.433A9.754,9.754,0,0,0,.37,9.255c0,.141-.009.283-.009.424a9.609,9.609,0,0,0,1.4,5L0,19.87l5.4-1.717A9.765,9.765,0,0,0,19.865,9.679c0-.082,0-.164-.005-.247m-9.747,8.383A8.169,8.169,0,0,1,5.6,16.469l-3.151,1L3.475,14.45A8.053,8.053,0,0,1,1.913,9.679a7.517,7.517,0,0,1,.041-.79,8.2,8.2,0,0,1,16.331.155c.018.21.028.42.028.634a8.177,8.177,0,0,1-8.2,8.136" transform="translate(0 0)" fill="#fff"/>
    <path id="Path_20578" data-name="Path 20578" d="M16.613,13.628c-.242-.119-1.415-.694-1.634-.771s-.379-.119-.539.119-.621.771-.758.927-.278.178-.521.059a6.458,6.458,0,0,1-1.922-1.178,7.093,7.093,0,0,1-1.329-1.639c-.136-.238-.013-.365.105-.484s.238-.278.361-.415c.032-.041.059-.078.086-.114a2.526,2.526,0,0,0,.151-.284.427.427,0,0,0-.018-.415c-.059-.118-.539-1.287-.74-1.762s-.4-.393-.539-.393-.3-.022-.457-.022a.884.884,0,0,0-.639.3,2.656,2.656,0,0,0-.836,1.982,3,3,0,0,0,.124.808,5.368,5.368,0,0,0,.853,1.644,9.816,9.816,0,0,0,4.082,3.584c2.433.946,2.433.63,2.872.589a2.383,2.383,0,0,0,1.611-1.128A1.958,1.958,0,0,0,17.07,13.9c-.059-.1-.22-.155-.457-.274" transform="translate(-2.031 -1.994)" fill="#fff"/>
  </g>
</svg>
